<?xml version="1.0" encoding="UTF-8" standalone="no"?>
<!-- Created with Inkscape (http://www.inkscape.org/) -->

<svg
   xmlns:dc="http://purl.org/dc/elements/1.1/"
   xmlns:cc="http://creativecommons.org/ns#"
   xmlns:rdf="http://www.w3.org/1999/02/22-rdf-syntax-ns#"
   xmlns:svg="http://www.w3.org/2000/svg"
   xmlns="http://www.w3.org/2000/svg"
   xmlns:xlink="http://www.w3.org/1999/xlink"
   xmlns:sodipodi="http://sodipodi.sourceforge.net/DTD/sodipodi-0.dtd"
   xmlns:inkscape="http://www.inkscape.org/namespaces/inkscape"
   width="46.12302mm"
   height="26.010469mm"
   viewBox="0 0 163.42802 92.16308"
   id="svg4458"
   version="1.1"
   inkscape:version="0.91 r13725"
   sodipodi:docname="docker.svg">
  <defs
     id="defs4460">
    <clipPath
       id="clipPath8">
      <path
         inkscape:connector-curvature="0"
         id="path10"
         d="m 76,2 0,46 -22,0 0,23 -18.419263,0 c -0.07818,0.665694 -0.141485,1.332869 -0.205737,2 -1.151162,12.530963 1.036422,24.087546 6.0625,33.96875 L 43.125,110 c 1.011403,1.81678 2.191241,3.52297 3.4375,5.1875 1.244725,1.66248 1.685716,2.58262 2.46875,3.6875 C 62.319911,133.81083 82.129473,141 105,141 155.64836,141 198.63299,118.56201 217.65625,68.15625 231.15302,69.54122 244.09968,66.080358 250,54.5625 240.60137,49.138835 228.52163,50.877226 221.5625,54.375 L 240,2 168,48 145,48 145,2 Z" />
    </clipPath>
    <clipPath
       id="clipPath4421">
      <path
         inkscape:connector-curvature="0"
         id="path4423"
         d="m 76,2 0,46 -22,0 0,23 -18.419263,0 c -0.07818,0.665694 -0.141485,1.332869 -0.205737,2 -1.151162,12.530963 1.036422,24.087546 6.0625,33.96875 L 43.125,110 c 1.011403,1.81678 2.191241,3.52297 3.4375,5.1875 1.244725,1.66248 1.685716,2.58262 2.46875,3.6875 C 62.319911,133.81083 82.129473,141 105,141 155.64836,141 198.63299,118.56201 217.65625,68.15625 231.15302,69.54122 244.09968,66.080358 250,54.5625 240.60137,49.138835 228.52163,50.877226 221.5625,54.375 L 240,2 168,48 145,48 145,2 Z" />
    </clipPath>
    <clipPath
       id="clipPath4425">
      <path
         inkscape:connector-curvature="0"
         id="path4427"
         d="m 76,2 0,46 -22,0 0,23 -18.419263,0 c -0.07818,0.665694 -0.141485,1.332869 -0.205737,2 -1.151162,12.530963 1.036422,24.087546 6.0625,33.96875 L 43.125,110 c 1.011403,1.81678 2.191241,3.52297 3.4375,5.1875 1.244725,1.66248 1.685716,2.58262 2.46875,3.6875 C 62.319911,133.81083 82.129473,141 105,141 155.64836,141 198.63299,118.56201 217.65625,68.15625 231.15302,69.54122 244.09968,66.080358 250,54.5625 240.60137,49.138835 228.52163,50.877226 221.5625,54.375 L 240,2 168,48 145,48 145,2 Z" />
    </clipPath>
    <clipPath
       id="clipPath4429">
      <path
         inkscape:connector-curvature="0"
         id="path4431"
         d="m 76,2 0,46 -22,0 0,23 -18.419263,0 c -0.07818,0.665694 -0.141485,1.332869 -0.205737,2 -1.151162,12.530963 1.036422,24.087546 6.0625,33.96875 L 43.125,110 c 1.011403,1.81678 2.191241,3.52297 3.4375,5.1875 1.244725,1.66248 1.685716,2.58262 2.46875,3.6875 C 62.319911,133.81083 82.129473,141 105,141 155.64836,141 198.63299,118.56201 217.65625,68.15625 231.15302,69.54122 244.09968,66.080358 250,54.5625 240.60137,49.138835 228.52163,50.877226 221.5625,54.375 L 240,2 168,48 145,48 145,2 Z" />
    </clipPath>
    <clipPath
       id="clipPath4433">
      <path
         inkscape:connector-curvature="0"
         id="path4435"
         d="m 76,2 0,46 -22,0 0,23 -18.419263,0 c -0.07818,0.665694 -0.141485,1.332869 -0.205737,2 -1.151162,12.530963 1.036422,24.087546 6.0625,33.96875 L 43.125,110 c 1.011403,1.81678 2.191241,3.52297 3.4375,5.1875 1.244725,1.66248 1.685716,2.58262 2.46875,3.6875 C 62.319911,133.81083 82.129473,141 105,141 155.64836,141 198.63299,118.56201 217.65625,68.15625 231.15302,69.54122 244.09968,66.080358 250,54.5625 240.60137,49.138835 228.52163,50.877226 221.5625,54.375 L 240,2 168,48 145,48 145,2 Z" />
    </clipPath>
  </defs>
  <sodipodi:namedview
     id="base"
     pagecolor="#ffffff"
     bordercolor="#666666"
     borderopacity="1.0"
     inkscape:pageopacity="0.0"
     inkscape:pageshadow="2"
     inkscape:zoom="0.35"
     inkscape:cx="-173.28599"
     inkscape:cy="-225.34703"
     inkscape:document-units="px"
     inkscape:current-layer="layer1"
     showgrid="false"
     fit-margin-top="0"
     fit-margin-left="0"
     fit-margin-right="0"
     fit-margin-bottom="0"
     inkscape:window-width="796"
     inkscape:window-height="861"
     inkscape:window-x="800"
     inkscape:window-y="18"
     inkscape:window-maximized="0" />
  <metadata
     id="metadata4463">
    <rdf:RDF>
      <cc:Work
         rdf:about="">
        <dc:format>image/svg+xml</dc:format>
        <dc:type
           rdf:resource="http://purl.org/dc/dcmitype/StillImage" />
        <dc:title></dc:title>
      </cc:Work>
    </rdf:RDF>
  </metadata>
  <g
     inkscape:label="Calque 1"
     inkscape:groupmode="layer"
     id="layer1"
     transform="translate(-1.14313,-214.85209)">
    <g
       transform="translate(-229.39999,-617.59807)"
       id="g4389">
      <path
         style="fill:#394d54"
         id="path14"
         d="m 325.51306,861.55369 14.55192,0 0,14.87567 7.3579,0 c 3.39778,0 6.89267,-0.60532 10.11048,-1.69565 1.58113,-0.53613 3.35584,-1.28221 4.9155,-2.22053 -2.0542,-2.68201 -3.10295,-6.06854 -3.41174,-9.40666 -0.41922,-4.54024 0.49659,-10.44995 3.56954,-14.00347 l 1.52966,-1.76927 1.82278,1.46525 c 4.58932,3.68713 8.44891,8.83916 9.12921,14.7124 5.52593,-1.62543 12.01369,-1.24098 16.88454,1.57022 l 1.9983,1.15305 -1.0518,2.05283 c -4.11935,8.03987 -12.73119,10.53034 -21.15079,10.08963 -12.5989,31.37984 -40.02813,46.23608 -73.28594,46.23608 -17.1821,0 -32.94632,-6.423 -41.92318,-21.66745 -0.52631,-0.94695 -0.97702,-1.93713 -1.45502,-2.90969 -3.03443,-6.71033 -4.04227,-14.06142 -3.35857,-21.40637 l 0.20519,-2.20008 12.44348,0 0,-14.87566 14.5519,0 0,-14.55192 29.10383,0 0,-14.55191 17.46259,0 0,29.10383"
         inkscape:connector-curvature="0" />
      <g
         transform="matrix(0.63639948,0,0,0.63639948,231.65204,832.44987)"
         id="g16"
         clip-path="url(#clipPath8)">
        <g
           id="g18">
          <g
             id="g20"
             transform="translate(0,-22.866)">
            <path
               style="fill:#00acd3"
               id="path22"
               d="m 123.85901,3.8110794 19.81751,0 0,19.8169706 -19.81751,0 z"
               inkscape:connector-curvature="0" />
            <path
               style="fill:#20c2ef"
               id="path24"
               d="m 123.85901,26.676485 19.81751,0 0,19.818043 -19.81751,0 z"
               inkscape:connector-curvature="0" />
            <path
               style="stroke:#394d54;stroke-width:1.55999994"
               id="path26"
               d="m 126.29235,21.976904 0,-16.5157492 m 2.97185,16.5157492 0,-16.5157492 m 3.00184,16.5157492 0,-16.5157492 m 3.00344,16.5157492 0,-16.5157492 m 3.00292,16.5157492 0,-16.5157492 m 2.97131,16.5157492 0,-16.5157492"
               inkscape:connector-curvature="0" />
            <use
               xlink:href="#path26"
               id="use28"
               transform="translate(0,22.866)"
               x="0"
               y="0"
               width="100%"
               height="100%" />
          </g>
          <use
             xlink:href="#g20"
             id="use30"
             transform="matrix(1,0,0,-1,22.866,4.572651)"
             x="0"
             y="0"
             width="100%"
             height="100%" />
        </g>
        <use
           xlink:href="#g18"
           id="use32"
           transform="translate(-91.464,45.732)"
           x="0"
           y="0"
           width="100%"
           height="100%" />
        <use
           xlink:href="#g18"
           id="use34"
           transform="translate(-45.732,45.732)"
           x="0"
           y="0"
           width="100%"
           height="100%" />
        <use
           xlink:href="#g18"
           id="use36"
           transform="translate(0,45.732)"
           x="0"
           y="0"
           width="100%"
           height="100%" />
      </g>
      <path
         transform="matrix(0.63639948,0,0,0.63639948,231.65204,832.44987)"
         style="fill:#17b5eb"
         id="path38"
         clip-path="url(#clipPath8)"
         d="m 221.57014,54.379649 c 1.53332,-11.915247 -7.38383,-21.274779 -12.91407,-25.71836 -6.37269,7.367765 -7.36295,26.677556 2.63498,34.807431 -5.57952,4.956117 -17.33731,9.448435 -29.37574,9.448435 L 34,72.917155 C 32.829255,85.484184 34,146 34,146 l 217,0 -0.98657,-91.424 c -9.39863,-5.423665 -21.48419,-3.694326 -28.44332,-0.196552"
         inkscape:connector-curvature="0" />
      <path
         transform="matrix(0.63639948,0,0,0.63639948,231.65204,832.44987)"
         style="fill-opacity:0.17000002"
         id="path40"
         clip-path="url(#clipPath8)"
         d="m 34,89 0,57 217,0 0,-57"
         inkscape:connector-curvature="0" />
      <path
         transform="matrix(0.63639948,0,0,0.63639948,231.65204,832.44987)"
         style="fill:#d4edf1"
         id="path42"
         clip-path="url(#clipPath8)"
         d="M 111.23736,140.88997 C 97.697741,134.4648 90.265707,125.73081 86.130611,116.19562 L 45,118 l 21,28 45.23736,-5.11003"
         inkscape:connector-curvature="0" />
      <path
         transform="matrix(0.63639948,0,0,0.63639948,231.65204,832.44987)"
         style="fill-opacity:0.08500001"
         id="path44"
         clip-path="url(#clipPath8)"
         d="m 222.5,53.9375 0,0.03125 c -20.86119,26.889144 -50.78312,50.37872 -82.90625,62.71875 -28.65478,11.00767 -53.638381,11.06039 -70.875,2.21875 -1.85607,-1.04832 -3.675701,-2.21152 -5.5,-3.3125 C 50.582097,106.76175 43.464274,92.152308 44.0625,72.90625 L 34,72.90625 34,146 l 217,0 0,-96 -25,0 z"
         inkscape:connector-curvature="0" />
      <path
         style="fill:none;stroke:#394d54;stroke-width:2.16375828;stroke-linecap:round"
         id="path46"
         d="m 260.68777,906.92849 c 9.01468,0.49341 18.63533,0.58188 27.02708,-2.04841"
         inkscape:connector-curvature="0" />
      <path
         style="fill:#d4edf1"
         id="path48"
         d="m 296.67312,900.51868 c 0,1.92128 -1.55761,3.47889 -3.47887,3.47889 -1.92163,0 -3.47958,-1.55761 -3.47958,-3.47889 0,-1.92126 1.55795,-3.47956 3.47958,-3.47956 1.92126,0 3.47887,1.5583 3.47887,3.47956 z"
         inkscape:connector-curvature="0" />
      <path
         style="fill:#394d54"
         id="path50"
         d="m 294.09643,898.19489 c -0.30369,0.17552 -0.50921,0.50443 -0.50921,0.8807 0,0.5617 0.45535,1.01638 1.01705,1.01638 0.38479,0 0.71916,-0.21371 0.89195,-0.52932 0.12207,0.29415 0.18985,0.61725 0.18985,0.95603 0,1.37596 -1.11554,2.49149 -2.49182,2.49149 -1.37596,0 -2.49218,-1.11553 -2.49218,-2.49149 0,-1.37662 1.11622,-2.49251 2.49218,-2.49251 0.31833,0 0.62201,0.06 0.90218,0.16872 z"
         inkscape:connector-curvature="0" />
      <path
         style="fill:#394d54"
         id="path52"
         d="m 230.54312,889.82913 161.85384,0 c -3.52421,-0.894 -11.15036,-2.10157 -9.89269,-6.7202 -6.40799,7.41516 -21.86206,5.20214 -25.76221,1.54568 -4.34324,6.29927 -29.62726,3.90492 -31.39074,-1.0024 -5.44481,6.38994 -22.31673,6.38994 -27.76188,0 -1.76416,4.90732 -27.04785,7.30167 -31.39142,1.0024 -3.90015,3.65646 -19.35286,5.86948 -25.76154,-1.54568 1.25768,4.61863 -6.36847,5.8262 -9.89336,6.7202"
         inkscape:connector-curvature="0" />
    </g>
  </g>
</svg>
